<svg width="24" height="24" viewBox="0 0 24 24" fill="none" xmlns="http://www.w3.org/2000/svg">
<path d="M20.0004 20.0001L15.9504 15.9501M15.9504 15.9501C16.6004 15.3001 17.116 14.5284 17.4678 13.679C17.8196 12.8297 18.0007 11.9194 18.0007 11.0001C18.0007 10.0808 17.8196 9.17051 17.4678 8.32119C17.116 7.47187 16.6004 6.70016 15.9504 6.05011C15.3003 5.40007 14.5286 4.88443 13.6793 4.53263C12.83 4.18083 11.9197 3.99976 11.0004 3.99976C10.0811 3.99976 9.17076 4.18083 8.32144 4.53263C7.47211 4.88443 6.7004 5.40007 6.05036 6.05011C4.73754 7.36293 4 9.1435 4 11.0001C4 12.8567 4.73754 14.6373 6.05036 15.9501C7.36318 17.2629 9.14375 18.0005 11.0004 18.0005C12.857 18.0005 14.6375 17.2629 15.9504 15.9501Z" stroke="black" stroke-width="2" stroke-linecap="round" stroke-linejoin="round"/>
</svg>
