<svg width="24" height="24" viewBox="0 0 24 24" fill="none" xmlns="http://www.w3.org/2000/svg">
<path d="M1 1H8.4327C8.86621 0.999931 9.29549 1.11375 9.696 1.33496C10.0965 1.55616 10.4604 1.88042 10.7669 2.2892L14.2 6.86667M4.3 14.2H1M8.15 5.4L10.35 8.33333C10.4945 8.52594 10.609 8.7546 10.6872 9.00625C10.7654 9.2579 10.8056 9.52761 10.8056 9.8C10.8056 10.0724 10.7654 10.3421 10.6872 10.5938C10.609 10.8454 10.4945 11.0741 10.35 11.2667C10.2055 11.4593 10.0341 11.6121 9.84532 11.7163C9.65658 11.8205 9.45429 11.8742 9.25 11.8742C9.04571 11.8742 8.84342 11.8205 8.65468 11.7163C8.46595 11.6121 8.29445 11.4593 8.15 11.2667L6.5 9.06667C5.554 10.328 4.0547 10.4703 2.9833 9.3996L2.65 9.06667" stroke="black" stroke-width="1.5" stroke-linecap="round" stroke-linejoin="round"/>
<path d="M4.2998 10.5334V17.1334C4.2998 19.8995 4.2998 21.2811 4.9444 22.1406C5.589 23 6.6252 23 8.6998 23H18.5998C20.6744 23 21.7106 23 22.3552 22.1406C22.9998 21.2811 22.9998 19.8995 22.9998 17.1334V12.7334C22.9998 9.96723 22.9998 8.58563 22.3552 7.72617C21.7106 6.8667 20.6744 6.8667 18.5998 6.8667H9.2498" stroke="black" stroke-width="1.5" stroke-linecap="round" stroke-linejoin="round"/>
<path d="M15.5746 14.9334C15.5746 15.6141 15.3718 16.2669 15.0108 16.7483C14.6498 17.2296 14.1602 17.5 13.6496 17.5C13.1391 17.5 12.6494 17.2296 12.2884 16.7483C11.9274 16.2669 11.7246 15.6141 11.7246 14.9334C11.7246 14.2526 11.9274 13.5998 12.2884 13.1185C12.6494 12.6371 13.1391 12.3667 13.6496 12.3667C14.1602 12.3667 14.6498 12.6371 15.0108 13.1185C15.3718 13.5998 15.5746 14.2526 15.5746 14.9334Z" stroke="black" stroke-width="1.5" stroke-linecap="round" stroke-linejoin="round"/>
</svg>
