<svg width="14" height="15" viewBox="0 0 14 15" fill="none" xmlns="http://www.w3.org/2000/svg">
<g clip-path="url(#clip0_1160_235)">
<path d="M7.42461 8.90005L2.52461 13.8C2.34128 13.9834 2.10794 14.075 1.82461 14.075C1.54128 14.075 1.30794 13.9834 1.12461 13.8C0.941276 13.6167 0.849609 13.3834 0.849609 13.1C0.849609 12.8167 0.941276 12.5834 1.12461 12.4L6.02461 7.50005L1.12461 2.60005C0.941276 2.41672 0.849609 2.18338 0.849609 1.90005C0.849609 1.61672 0.941276 1.38338 1.12461 1.20005C1.30794 1.01672 1.54128 0.925049 1.82461 0.925049C2.10794 0.925049 2.34128 1.01672 2.52461 1.20005L7.42461 6.10005L12.3246 1.20005C12.5079 1.01672 12.7413 0.925049 13.0246 0.925049C13.3079 0.925049 13.5413 1.01672 13.7246 1.20005C13.9079 1.38338 13.9996 1.61672 13.9996 1.90005C13.9996 2.18338 13.9079 2.41672 13.7246 2.60005L8.82461 7.50005L13.7246 12.4C13.9079 12.5834 13.9996 12.8167 13.9996 13.1C13.9996 13.3834 13.9079 13.6167 13.7246 13.8C13.5413 13.9834 13.3079 14.075 13.0246 14.075C12.7413 14.075 12.5079 13.9834 12.3246 13.8L7.42461 8.90005Z" fill="black"/>
</g>
<defs>
<clipPath id="clip0_1160_235">
<rect width="13.15" height="13.15" fill="white" transform="translate(0.849609 0.925049)"/>
</clipPath>
</defs>
</svg>
